# Blender v2.78 (sub 0) OBJ File: ''
# www.blender.org
mtllib Projectile.mtl
o Cube_Cube.001
v 0.000000 -0.448236 -0.000000
v 0.000000 0.183377 0.000000
v 0.084548 -0.002611 -0.015393
v -0.015393 -0.002611 -0.084548
v 0.015393 -0.002611 0.084548
v -0.084548 -0.002611 0.015393
vn 0.5409 0.3106 -0.7817
vn -0.5638 -0.1351 0.8148
vn 0.8148 -0.1351 0.5638
vn -0.8148 -0.1351 -0.5638
vn -0.7817 0.3106 -0.5409
vn 0.7817 0.3106 0.5409
vn -0.5409 0.3106 0.7817
vn 0.5638 -0.1351 -0.8148
usemtl None
s off
f 3//1 4//1 2//1
f 5//2 6//2 1//2
f 3//3 5//3 1//3
f 6//4 4//4 1//4
f 2//5 4//5 6//5
f 2//6 5//6 3//6
f 2//7 6//7 5//7
f 1//8 4//8 3//8
